<svg height="100" viewBox="0 0 160 100" width="160" xmlns="http://www.w3.org/2000/svg"><g fill="none" fill-rule="evenodd"><path d="M148 0H8C4 0 0 4 0 8v80c0 8 4 12 12 12h136c8 0 12-4 12-12V12c0-8-4-12-12-12zm0 0" fill="#F4F4F4"/><path d="M49.543 100H148c8 0 12-4 12-12V40.429S136.16 82.403 49.543 100zm0 0" fill="#D97B16"/><path d="M52.038 48.92h1.438l4.45 6.642h.023v-6.641h1.096V57h-1.392l-4.496-6.641h-.023V57h-1.096v-8.08zm9.084 0h5.215v1.028h-4.12v2.408h3.834v1.027h-3.834v2.59h4.325V57h-5.42v-8.08zm8.661 1.028h-2.602V48.92h6.3v1.027h-2.603V57h-1.095v-7.052zm3.834-1.027h1.141l1.78 6.459h.023l1.906-6.46h1.255l1.906 6.46h.023l1.78-6.46h1.141L82.222 57h-1.153l-1.963-6.596h-.023L77.132 57h-1.153l-2.362-8.08zm15.713 8.284a4.355 4.355 0 0 1-1.7-.325 3.96 3.96 0 0 1-1.33-.896 4.14 4.14 0 0 1-.866-1.346 4.432 4.432 0 0 1-.314-1.678c0-.6.104-1.16.314-1.677a4.14 4.14 0 0 1 .867-1.347 3.96 3.96 0 0 1 1.33-.895 4.355 4.355 0 0 1 1.7-.326c.616 0 1.182.109 1.7.326.517.216.96.515 1.33.895.368.38.657.83.866 1.347.21.517.314 1.076.314 1.677s-.104 1.16-.314 1.678a4.14 4.14 0 0 1-.867 1.346 3.96 3.96 0 0 1-1.33.896 4.355 4.355 0 0 1-1.7.325zm0-1.027c.465 0 .883-.085 1.256-.256.372-.172.692-.402.958-.69.267-.29.472-.63.616-1.022.145-.392.217-.808.217-1.25 0-.44-.072-.857-.217-1.25a3.044 3.044 0 0 0-.616-1.02 2.975 2.975 0 0 0-.958-.69 2.974 2.974 0 0 0-1.256-.258c-.464 0-.882.086-1.255.257a2.975 2.975 0 0 0-.958.69c-.267.29-.472.63-.617 1.022a3.581 3.581 0 0 0-.216 1.25c0 .44.072.857.216 1.249.145.392.35.732.617 1.021a2.935 2.935 0 0 0 2.213.947s-.464 0 0 0zm5.786-7.257h2.841c.518 0 .944.07 1.278.21.335.142.6.32.794.537.194.217.329.46.405.73.076.27.114.531.114.782a2.112 2.112 0 0 1-.53 1.398 2.243 2.243 0 0 1-.628.49 2.185 2.185 0 0 1-.828.246L100.856 57h-1.37l-2.054-3.56h-1.22V57h-1.096v-8.08zm1.095 3.56h1.438c.213 0 .424-.017.634-.051.209-.034.395-.097.559-.189a1.03 1.03 0 0 0 .393-.393c.1-.171.149-.394.149-.668s-.05-.496-.149-.667a1.03 1.03 0 0 0-.393-.394 1.702 1.702 0 0 0-.56-.188 3.915 3.915 0 0 0-.633-.052h-1.438v2.602zm5.877-3.56h1.096v3.492h.091l3.572-3.492h1.529l-3.903 3.731L108.638 57h-1.597l-3.766-4.04h-.091V57h-1.096v-8.08zM14.133 23.884h7.534c1.26 0 2.474.193 3.644.58a8.856 8.856 0 0 1 3.105 1.769c.9.792 1.62 1.786 2.16 2.983.54 1.198.81 2.606.81 4.226 0 1.638-.31 3.055-.931 4.252-.621 1.198-1.422 2.187-2.403 2.97a10.248 10.248 0 0 1-3.267 1.755 11.382 11.382 0 0 1-3.523.581h-7.129V23.884zm5.94 16.038c1.063 0 2.066-.121 3.011-.364.945-.244 1.768-.621 2.47-1.135a5.385 5.385 0 0 0 1.661-1.998c.405-.819.608-1.813.608-2.983 0-1.152-.18-2.142-.54-2.97-.36-.828-.86-1.498-1.499-2.012-.639-.513-1.395-.89-2.268-1.134-.873-.243-1.831-.364-2.875-.364h-3.105v12.96h2.537zm14.472-16.038h3.402V43h-3.402V23.884zm16.956 4.104a3.138 3.138 0 0 0-1.444-1.148 5.045 5.045 0 0 0-1.904-.364c-.396 0-.778.045-1.147.135-.369.09-.702.234-.999.432a2.257 2.257 0 0 0-.715.77c-.18.315-.27.688-.27 1.12 0 .648.224 1.143.675 1.485.45.342 1.007.639 1.673.891a31.09 31.09 0 0 0 2.188.729 8.892 8.892 0 0 1 2.187.972 5.408 5.408 0 0 1 1.674 1.647c.45.684.675 1.593.675 2.727 0 1.026-.19 1.921-.568 2.687a5.474 5.474 0 0 1-1.525 1.903 6.596 6.596 0 0 1-2.227 1.134 9.315 9.315 0 0 1-2.674.378 10.03 10.03 0 0 1-3.428-.594c-1.099-.396-2.043-1.062-2.835-1.998L43.4 38.41a4.29 4.29 0 0 0 1.634 1.472 4.588 4.588 0 0 0 3.335.364c.396-.108.755-.27 1.08-.486.324-.216.584-.49.782-.823.199-.334.297-.716.297-1.148 0-.702-.224-1.242-.675-1.62-.45-.378-1.007-.697-1.673-.958a26.888 26.888 0 0 0-2.188-.743 9.21 9.21 0 0 1-2.187-.959 5.319 5.319 0 0 1-1.673-1.62c-.45-.675-.675-1.579-.675-2.713 0-.99.202-1.845.607-2.565a5.556 5.556 0 0 1 1.593-1.796 6.954 6.954 0 0 1 2.255-1.066 9.679 9.679 0 0 1 5.521.108 6.79 6.79 0 0 1 2.552 1.512s-.757-.702 0 0l-2.484 2.619zm19.252.378c-.703-.756-1.382-1.26-2.039-1.512a5.504 5.504 0 0 0-1.984-.378c-.99 0-1.886.175-2.687.527a6.147 6.147 0 0 0-2.066 1.457 6.622 6.622 0 0 0-1.336 2.174 7.455 7.455 0 0 0-.472 2.673c0 1.026.157 1.971.472 2.835.315.864.76 1.611 1.337 2.241a6.219 6.219 0 0 0 2.065 1.485c.801.36 1.696.54 2.686.54.775 0 1.526-.184 2.255-.553.729-.37 1.408-.959 2.038-1.769l2.808 1.998c-.864 1.188-1.916 2.052-3.159 2.592a9.846 9.846 0 0 1-3.969.81c-1.476 0-2.83-.238-4.063-.715-1.233-.478-2.295-1.152-3.186-2.026-.891-.873-1.588-1.921-2.093-3.145-.504-1.224-.755-2.583-.755-4.077 0-1.53.251-2.92.756-4.172.504-1.25 1.201-2.317 2.092-3.199a9.172 9.172 0 0 1 3.186-2.039c1.233-.477 2.587-.715 4.063-.715 1.297 0 2.498.23 3.605.689 1.107.459 2.137 1.237 3.091 2.335 0 0-.954-1.098 0 0l-2.645 1.944zm25.65-4.482h3.914l5.212 14.445 5.373-14.445h3.671L106.852 43h-2.944l-7.505-19.116zm20.222 0h12.663v3.078h-9.26v4.698h8.775v3.078h-8.775v5.184h9.746V43h-13.148V23.884zm16.498 0h6.642c.918 0 1.804.085 2.659.256a6.81 6.81 0 0 1 2.281.878 4.59 4.59 0 0 1 1.593 1.674c.397.702.595 1.593.595 2.673 0 1.386-.383 2.547-1.148 3.483-.765.936-1.858 1.503-3.28 1.701L147.54 43h-4.105l-4.428-8.1h-2.484V43h-3.401V23.884zm6.048 8.1c.486 0 .971-.022 1.458-.068a4.477 4.477 0 0 0 1.336-.323 2.28 2.28 0 0 0 .986-.784c.252-.35.377-.841.377-1.471 0-.558-.116-1.008-.35-1.35a2.181 2.181 0 0 0-.918-.77 4.226 4.226 0 0 0-1.256-.337 11.44 11.44 0 0 0-1.337-.081h-2.943v5.184h2.647zm0 0" fill="#000"/><circle cx="86.05" cy="33.45" fill="#D97B16" r="10.05"/></g></svg>