<svg opacity=".5" xmlns="http://www.w3.org/2000/svg" viewBox="-225 347 160 100"><path fill="#4F4F4F" d="M-77 347h-140c-4 0-8 4-8 8v80c0 8 4 12 12 12h136c8 0 12-4 12-12v-76c0-8-4-12-12-12z"/><path fill="#ABABAB" d="M-75.5 397.5c0 23.2-18.6 42.1-41.6 42.1s-41.6-18.8-41.6-42.1c0-23.2 18.6-42.1 41.6-42.1s41.6 18.8 41.6 42.1z"/><path fill="#5A5A5A" d="M-173.2 355.4c-22.9.1-41.4 18.9-41.4 42.1 0 23.2 18.6 42.1 41.6 42.1 10.8 0 20.6-4.2 28-11 1.5-1.4 2.9-2.9 4.2-4.5h-8.5c-1.1-1.4-2.2-2.8-3.1-4.3h14.7c.9-1.4 1.7-2.9 2.4-4.5h-19.6c-.7-1.4-1.2-2.9-1.7-4.4h23c1.4-4.2 2.1-8.7 2.1-13.3 0-3.1-.3-6.1-1-9h-25.4c.3-1.5.7-3 1.2-4.4h23c-.5-1.5-1.1-3-1.8-4.5H-155c.7-1.5 1.5-3 2.4-4.4h14.7c-1-1.6-2.1-3.1-3.2-4.5h-8.2c1.3-1.5 2.7-2.9 4.2-4.2-7.4-6.8-17.2-11-28-11 .1-.2 0-.2-.1-.2 0 0 .1 0 0 0z"/><path fill="#FFF" d="M-158 408.2l.6-3.8c-.3 0-.7.1-1.1.1-1.5 0-1.7-.8-1.6-1.4l1.2-7.8h2.3l.6-4.2h-2.2l.5-2.6h-4.4c-.1.1-2.6 14.7-2.6 16.5 0 2.6 1.5 3.8 3.5 3.8 1.5 0 2.8-.5 3.2-.6 0 0-.4.1 0 0zm1.5-7.2c0 6.3 4.1 7.8 7.7 7.8 3.3 0 4.7-.7 4.7-.7l.8-4.3s-2.5 1.1-4.7 1.1c-4.8 0-3.9-3.6-3.9-3.6h9s.6-2.9.6-4.1c0-3-1.5-6.5-6.3-6.5-4.6-.1-7.9 4.8-7.9 10.3 0 0 0-5.5 0 0zm7.7-6.4c2.5 0 2 2.8 2 3.1h-4.9c0-.3.5-3.1 2.9-3.1 0 0-2.4 0 0 0zm28.1 13.6l.8-4.9s-2.2 1.1-3.7 1.1c-3.1 0-4.4-2.4-4.4-5 0-5.3 2.7-8.2 5.7-8.2 2.3 0 4.1 1.3 4.1 1.3l.7-4.7s-2.7-1.1-5-1.1c-5.1 0-10.1 4.5-10.1 12.9 0 5.6 2.7 9.3 8 9.3 1.5-.1 3.9-.7 3.9-.7zm-61.6-17.5c-3 0-5.4 1-5.4 1l-.6 3.9s1.9-.8 4.8-.8c1.7 0 2.9.2 2.9 1.5 0 .8-.1 1.1-.1 1.1s-1.3-.1-1.9-.1c-3.8 0-7.9 1.7-7.9 6.6 0 3.9 2.6 4.8 4.3 4.8 3.1 0 4.5-2.1 4.5-2.1l-.1 1.7h3.9l1.7-12.3c0-5.1-4.6-5.3-6.1-5.3zm.9 10c.1.8-.5 4.3-3.1 4.3-1.4 0-1.7-1.1-1.7-1.7 0-1.2.7-2.7 3.9-2.7.7 0 .8.1.9.1 0 0-.1 0 0 0zm9.3 8c1 0 6.7.3 6.7-5.7 0-5.6-5.3-4.5-5.3-6.7 0-1.1.9-1.5 2.4-1.5.6 0 3 .2 3 .2l.6-4s-1.6-.4-4.1-.4c-3.3 0-6.6 1.3-6.6 5.8 0 5.1 5.5 4.6 5.5 6.8 0 1.4-1.6 1.6-2.7 1.6-2.1 0-3.9-.7-3.9-.7l-.6 3.9c.1.2 1.3.7 5 .7 0 0-3.7 0 0 0zm88.1-21.6l-1 6s-1.7-2.3-4.3-2.3c-4.1 0-7.4 4.9-7.4 10.6 0 3.7 1.8 7.3 5.5 7.3 2.7 0 4.1-1.9 4.1-1.9l-.2 1.6h4.3l3.4-21.3H-84zm-2.1 11.7c0 2.4-1.2 5.5-3.6 5.5-1.6 0-2.3-1.4-2.3-3.5 0-3.5 1.5-5.8 3.5-5.8 1.6.1 2.4 1.2 2.4 3.8 0 0 0-2.6 0 0zm-120.2 9.6l2.7-16.1.4 16.1h3.1l5.7-16.1-2.5 16.1h4.5l3.5-21.3h-7l-4.4 13.1-.2-13.1h-6.5l-3.5 21.3h4.2zm68.3.1c1.3-7.4 1.5-13.4 4.6-12.3.5-2.9 1.1-4 1.6-5.2 0 0-.3-.1-.9-.1-2 0-3.5 2.7-3.5 2.7l.4-2.5h-4.1l-2.8 17.4h4.7zm27.5-17.8c-3 0-5.4 1-5.4 1l-.6 3.9s1.9-.8 4.8-.8c1.7 0 2.9.2 2.9 1.5 0 .8-.1 1.1-.1 1.1s-1.3-.1-1.9-.1c-3.8 0-7.9 1.7-7.9 6.6 0 3.9 2.6 4.8 4.3 4.8 3.1 0 4.5-2.1 4.5-2.1l-.1 1.7h3.9l1.7-12.3c0-5.1-4.5-5.3-6.1-5.3zm1 10c.1.8-.5 4.3-3.1 4.3-1.4 0-1.7-1.1-1.7-1.7 0-1.2.7-2.7 3.9-2.7.7 0 .7.1.9.1 0 0-.2 0 0 0zm8.7 7.8c1.3-7.4 1.5-13.4 4.6-12.3.5-2.9 1.1-4 1.6-5.2 0 0-.3-.1-.9-.1-2 0-3.5 2.7-3.5 2.7l.4-2.5h-4.1l-2.8 17.4h4.7z"/></svg>