<svg height="100" viewBox="0 0 160 100" width="160" xmlns="http://www.w3.org/2000/svg"><g fill="none" fill-rule="evenodd"><path d="M148 0H8C4 0 0 4 0 8v80c0 8 4 12 12 12h136c8 0 12-4 12-12V12c0-8-4-12-12-12zm0 0" fill="#265697"/><path d="M149.545 50.5c.007 23.238-18.625 42.08-41.615 42.085-22.991.006-41.631-18.826-41.637-42.064V50.5c-.006-23.237 18.626-42.08 41.615-42.086 22.99-.006 41.631 18.827 41.637 42.065v.021s0-.008 0 0zm0 0" fill="#DFAC16"/><path d="M51.813 8.425c-22.854.147-41.359 18.94-41.359 42.075 0 23.225 18.649 42.075 41.627 42.075 10.784 0 20.614-4.155 28.011-10.963l-.003-.002h.009a42.283 42.283 0 0 0 4.226-4.505h-8.529a41.082 41.082 0 0 1-3.103-4.335H87.4a42.29 42.29 0 0 0 2.423-4.505h-19.56a41.763 41.763 0 0 1-1.74-4.42h23.042A42.384 42.384 0 0 0 93.707 50.5a42.6 42.6 0 0 0-.959-9.01H67.302c.315-1.494.713-2.97 1.187-4.42h23.05a42.346 42.346 0 0 0-1.794-4.505H70.26a40.506 40.506 0 0 1 2.389-4.42h14.697a42.154 42.154 0 0 0-3.23-4.505h-8.195a38.848 38.848 0 0 1 4.176-4.25C72.7 12.58 62.868 8.425 52.08 8.425h-.268s.09 0 0 0zm0 0" fill="#BF3126"/><path d="M67.05 61.212l.554-3.808c-.303 0-.748.132-1.142.132-1.543 0-1.713-.83-1.614-1.443l1.246-7.77h2.345l.566-4.211h-2.211l.45-2.62h-4.432c-.098.1-2.616 14.732-2.616 16.514 0 2.637 1.465 3.812 3.531 3.793 1.618-.013 2.878-.466 3.323-.587 0 0-.445.121 0 0zm1.404-7.26c0 6.331 4.134 7.835 7.656 7.835 3.251 0 4.682-.734 4.682-.734l.78-4.32s-2.473 1.1-4.706 1.1c-4.76 0-3.926-3.586-3.926-3.586h9.007s.582-2.903.582-4.086c0-2.952-1.454-6.548-6.32-6.548-4.456 0-7.755 4.854-7.755 10.34 0 0 0-5.486 0 0zm7.772-6.327c2.501 0 2.04 2.84 2.04 3.07h-4.92c0-.293.464-3.07 2.88-3.07 0 0-2.416 0 0 0zm28.066 13.585l.793-4.883s-2.175 1.102-3.667 1.102c-3.144 0-4.405-2.427-4.405-5.034 0-5.288 2.705-8.198 5.716-8.198 2.259 0 4.071 1.282 4.071 1.282l.724-4.745s-2.688-1.1-4.992-1.1c-5.117 0-10.094 4.487-10.094 12.913 0 5.587 2.688 9.277 7.977 9.277 1.495 0 3.877-.614 3.877-.614zM42.673 43.682c-3.039 0-5.369.988-5.369.988l-.643 3.859s1.923-.79 4.83-.79c1.65 0 2.857.188 2.857 1.543 0 .824-.148 1.128-.148 1.128s-1.301-.11-1.904-.11c-3.833 0-7.86 1.653-7.86 6.638 0 3.928 2.642 4.83 4.279 4.83 3.127 0 4.475-2.051 4.547-2.058l-.146 1.712h3.902l1.741-12.337c0-5.234-4.517-5.403-6.086-5.403zm.95 10.046c.084.753-.468 4.286-3.136 4.286-1.377 0-1.735-1.063-1.735-1.692 0-1.226.66-2.698 3.907-2.698.755.001.836.083.964.104 0 0-.128-.021 0 0zm9.284 7.949c.999 0 6.706.257 6.706-5.696 0-5.565-5.283-4.465-5.283-6.7 0-1.114.86-1.464 2.435-1.464.625 0 3.028.2 3.028.2l.56-3.955s-1.556-.352-4.09-.352c-3.278 0-6.606 1.323-6.606 5.85 0 5.128 5.549 4.614 5.549 6.774 0 1.442-1.55 1.56-2.745 1.56-2.068 0-3.93-.717-3.936-.683l-.591 3.915c.107.034 1.255.551 4.973.551 0 0-3.718 0 0 0zm88.097-21.544l-.956 5.996s-1.668-2.33-4.28-2.33c-4.06 0-7.445 4.95-7.445 10.636 0 3.67 1.805 7.267 5.496 7.267 2.655 0 4.126-1.87 4.126-1.87l-.195 1.597h4.311l3.386-21.303-4.443.007zm-2.058 11.69c0 2.367-1.159 5.528-3.562 5.528-1.595 0-2.342-1.354-2.342-3.478 0-3.473 1.543-5.764 3.49-5.764 1.596 0 2.414 1.107 2.414 3.715 0 0 0-2.608 0 0zM18.675 61.448l2.698-16.084.396 16.084h3.054l5.696-16.084-2.523 16.084h4.537l3.495-21.332H29.01l-4.37 13.088-.227-13.088h-6.467l-3.545 21.332h4.273zm68.286.029c1.29-7.415 1.53-13.436 4.608-12.334.54-2.87 1.06-3.98 1.647-5.195 0 0-.275-.059-.854-.059-1.985 0-3.456 2.741-3.456 2.741l.396-2.517h-4.127L82.41 61.477h4.551zm27.558-17.795c-3.04 0-5.37.988-5.37.988l-.642 3.859s1.923-.79 4.83-.79c1.65 0 2.856.188 2.856 1.543 0 .824-.147 1.128-.147 1.128s-1.301-.11-1.905-.11c-3.832 0-7.859 1.653-7.859 6.638 0 3.928 2.641 4.83 4.278 4.83 3.127 0 4.475-2.051 4.547-2.058l-.145 1.712h3.902l1.74-12.337c.001-5.234-4.516-5.403-6.085-5.403zm.95 10.046c.085.753-.467 4.286-3.137 4.286-1.376 0-1.733-1.063-1.733-1.692 0-1.226.659-2.698 3.906-2.698.755.001.836.083.964.104 0 0-.128-.021 0 0zm8.703 7.749c1.29-7.415 1.53-13.436 4.607-12.334.54-2.87 1.06-3.98 1.648-5.195 0 0-.276-.059-.854-.059-1.985 0-3.456 2.741-3.456 2.741l.395-2.517h-4.126l-2.765 17.364h4.55zm0 0" fill="#FFF"/></g></svg>