<svg xmlns="http://www.w3.org/2000/svg" viewBox="-225 347 160 100"><g opacity=".5"><path fill="#F6F6F6" d="M-225 356h160v80h-160z"/><path fill="#4F4F4F" d="M-77 347h-140c-4 0-8 4-8 8v12h160v-8c0-8-4-12-12-12z"/><path fill="#8C8C8C" d="M-225 427v8c0 8 4 12 12 12h136c8 0 12-4 12-12v-8h-160z"/><path fill="#4F4F4F" d="M-113.4 376.8c-2.2-.9-5.8-1.8-10.1-1.8-11.2 0-19.1 5.8-19.1 14-.1 6.1 5.6 9.5 9.9 11.5 4.4 2.1 5.9 3.4 5.9 5.3 0 2.8-3.5 4.1-6.8 4.1-4.5 0-6.9-.6-10.7-2.2l-1.5-.7-1.6 9.5c2.6 1.2 7.5 2.2 12.6 2.3 11.9 0 19.6-5.7 19.7-14.5 0-4.8-3-8.5-9.5-11.5-4-2-6.4-3.3-6.4-5.3 0-1.8 2.1-3.6 6.5-3.6 3.7-.1 6.4.8 8.5 1.6l1 .5 1.6-9.2m29-1h-8.7c-2.7 0-4.7.8-5.9 3.5l-16.8 38.9h11.9s1.9-5.2 2.4-6.4H-87c.3 1.5 1.4 6.4 1.4 6.4h10.5l-9.3-42.4zm-13.9 27.3c.9-2.4 4.5-11.9 4.5-11.9-.1.1.9-2.5 1.5-4l.8 3.7s2.2 10.1 2.6 12.3l-9.4-.1zm-67.5 15.1l7.1-42.4h11.3l-7.1 42.4h-11.3zm-9.4-42.4l-11.1 28.9-1.2-5.9c-2.1-6.8-8.5-14.1-15.7-17.8l10.1 37.1h12l17.8-42.3h-11.9"/><path fill="#8C8C8C" d="M-196.6 375.7h-18.3l-.1.9c14.2 3.5 23.6 12 27.5 22.2l-4-19.5c-.7-2.7-2.6-3.5-5.1-3.6"/></g></svg>