<?xml version="1.0" encoding="utf-8"?>
<!-- Generator: Adobe Illustrator 21.0.0, SVG Export Plug-In . SVG Version: 6.00 Build 0)  -->
<svg version="1.1" id="cashier" xmlns="http://www.w3.org/2000/svg" xmlns:xlink="http://www.w3.org/1999/xlink" x="0px" y="0px"
	 viewBox="0 0 1436 777.5" style="enable-background:new 0 0 1436 777.5;" xml:space="preserve">
<style type="text/css">
	.st0{fill:#FFFFFF;}
	.st1{fill:#C8D7E2;}
	.st2{fill:#E9EFF4;}
	.st3{fill:#74DCFC;}
	.st4{fill:#0084C0;}
	.st5{fill:#004F84;}
</style>
<title>cashier</title>
<path class="st0" d="M892.3,91.9c4.4,0,8.4-2.1,11-5.6c1.2-1.7,2-3.6,2.3-5.7c0.3-2-0.1-4-0.2-6.5l-2.4-28.3
	c-0.3-4.7-0.5-9.4-0.6-14.2c-0.3-4.4,0.3-10.4-0.7-12.4c-1-2.9-3.3-5.1-6.2-6.1c-0.7-0.2-1.4-0.4-2.2-0.5c-0.4-0.1-0.8,0-1.1-0.1
	h-1.7h-7.1L770,13.2c-2.8,0-5.5,1.2-7.2,3.4c-0.9,1.1-1.5,2.3-1.8,3.7c-0.4,1.2-0.2,2.8-0.3,5.4l-0.1,28.4l-0.1,14.2
	c0.1,4.4-0.4,10.5,0.4,12.3c0.9,2.8,3.1,5.1,5.9,6.1c0.7,0.3,1.4,0.4,2.1,0.5c0.4,0.1,0.7,0,1.1,0.1h1.7h7.1
	c6.8,0.1,13.7,0.1,20.5,0.1c0-0.1,0.1-0.2,0.1-0.3c1.4,0,2.7,0,4.1,0l0,0.3c10.7,0,21.3,0.2,32,0.8
	C854.5,89.6,873.4,91.9,892.3,91.9L892.3,91.9z"/>
<path class="st0" d="M853.7,96.8c-6,0.5-12.1,1-18.1,1.4c-10.7,0.6-21.3,0.7-32,0.8l-0.1,27.5h52.2
	C854.8,116.3,854.2,106.5,853.7,96.8z"/>
<path class="st1" d="M913.5,20.1c-0.1-1.6-0.5-3.2-1-4.8c-2.1-6.2-6.9-11.1-13.1-13.3c-1.5-0.6-3.1-0.9-4.7-1.1
	c-0.8-0.2-1.6-0.2-2.4-0.2h-1.8h-7.1L769.9-0.1c-6.8,0.1-13.2,3.2-17.5,8.5c-2.1,2.6-3.6,5.7-4.3,9c-0.8,3.4-0.5,6.7-0.5,8.7
	l0.3,28.3l0.1,14.2l0.1,7.1c0,1.3,0,2.6,0.1,3.9c0.2,1.7,0.5,3.3,1.1,4.9c2.2,6.3,7.1,11.2,13.4,13.4c1.5,0.5,3.1,0.9,4.8,1.1
	c0.8,0.2,1.6,0.2,2.4,0.2h1.8h7.1c4.9-0.1,9.8-0.1,14.7-0.1l0.1,27.5h4.9h4.9l0.1-27.5c10.7,0,21.3-0.2,32-0.8
	c6-0.4,12.1-0.9,18.1-1.4c0.5,9.7,1.1,19.5,2,29.8h2.1h2.3c0.7-8.7,1.3-17.6,1.7-26.8c0.1-1.2,0.1-2.4,0.1-3.7
	c10.1-0.8,20.3-1.5,30.4-1.4c5.3-0.1,10.2-2.4,13.6-6.4c1.7-2,3-4.4,3.8-6.9c0.8-2.6,0.8-5.4,1-7.6l2.2-28.4
	c0.3-4.7,0.5-9.5,0.5-14.2l0.1-7.1C913.6,22.7,913.6,21.4,913.5,20.1z M835.7,88.3c-10.7-0.6-21.3-0.7-32-0.8l0-0.3
	c-1.4,0-2.7,0-4.1,0c0,0.1-0.1,0.2-0.1,0.3c-6.8,0-13.7,0-20.5-0.1h-7.1h-1.7c-0.4-0.1-0.8,0-1.1-0.1c-0.7-0.1-1.4-0.3-2.1-0.5
	c-2.8-1-5-3.3-5.9-6.1c-0.9-1.8-0.3-7.9-0.4-12.3l0.1-14.2l0.1-28.4c0-2.7-0.1-4.2,0.3-5.4c0.3-1.4,0.9-2.6,1.8-3.7
	c1.8-2.2,4.4-3.4,7.2-3.4l113.4-0.8h7.1h1.7c0.4,0.1,0.8,0,1.1,0.1c0.7,0.1,1.5,0.2,2.2,0.5c2.9,1,5.2,3.3,6.2,6.1
	c1,2,0.4,8,0.7,12.4c0.1,4.7,0.3,9.4,0.6,14.2l2.4,28.3c0.2,2.5,0.5,4.5,0.2,6.5c-0.3,2.1-1.1,4-2.3,5.7c-2.6,3.5-6.6,5.6-11,5.6v0
	C873.4,91.9,854.5,89.6,835.7,88.3z"/>
<path class="st2" d="M1433,766c-111.9-2.4-223.8-3.5-335.7-4.2v4.7l-766.2,0v-4.8c-109.9,0.9-219.7,2-329.6,5.8l0,0.1
	c-0.8,0-1.5,0.7-1.5,1.5s0.7,1.5,1.5,1.5c119.3,4.1,238.6,5,357.9,6l357.9,0.9c238.6-0.9,477.2-0.4,715.8-5.5c1.7,0,3-1.3,3-3
	S1434.7,766,1433,766z"/>
<path class="st3" d="M331.1,636.9C331.1,637,331.1,637,331.1,636.9L331.1,636.9L331.1,636.9z"/>
<path class="st3" d="M1021.1,331.5l-6.4-126.4c-1.3-24.8-12.2-48.7-31.8-63.9c-11.8-9.2-25.2-14.6-39.9-14.6h-82.9h-2.3h-2.1h-52.2
	h-4.9h-4.9h-309c-19.9,0-35.2,8.2-48.4,23.5c-14.4,16.8-22.1,38.4-23.3,60.5l-5.9,126.2l-61.4,242.6h738.6L1021.1,331.5z
	 M944.6,173.2c3.8,0,7,2.6,7.2,6l4.8,117.2c0.1,2.3-0.9,4.6-2.6,6.1c-1.9,1.7-4.3,2.6-6.9,2.6H629.3l0.1-12.7l-2.3-119.2H944.6z
	 M478,292.3l5.3-119.1h92.5c3.8,0,7,2.6,7.2,6l-2.7,117.2c0.1,2.3-0.9,4.6-2.6,6.1c-1.9,1.7-4.3,2.6-6.9,2.6h-92.8L478,292.3z
	 M545.8,533.9h-38v-35.6c0-1.1,1.4-2.1,3.1-2.1h34.9V533.9z M545.8,473.9h-38v-35.6c0-1.1,1.4-2.1,3.1-2.1h34.9V473.9z M545.8,413.9
	h-38v-35.6c0-1.1,1.4-2.1,3.1-2.1h34.9V413.9z M620.9,533.9h-38v-35.6c0-1.1,1.4-2.1,3.1-2.1h34.9V533.9z M620.9,473.9h-38v-35.6
	c0-1.1,1.4-2.1,3.1-2.1h34.9V473.9z M620.9,413.9h-38v-35.6c0-1.1,1.4-2.1,3.1-2.1h34.9V413.9z M696,533.9h-38v-35.6
	c0-1.1,1.4-2.1,3.1-2.1H696V533.9z M696,473.9h-38v-35.6c0-1.1,1.4-2.1,3.1-2.1H696V473.9z M696,413.9h-38v-35.6
	c0-1.1,1.4-2.1,3.1-2.1H696V413.9z M771.1,533.9h-38v-35.6c0-1.1,1.4-2.1,3.1-2.1h34.9V533.9z M771.1,473.9h-38v-35.6
	c0-1.1,1.4-2.1,3.1-2.1h34.9V473.9z M771.1,413.9h-38v-35.6c0-1.1,1.4-2.1,3.1-2.1h34.9V413.9z M846.3,533.9h-38v-35.6
	c0-1.1,1.4-2.1,3.1-2.1h34.9V533.9z M846.3,473.9h-38v-35.6c0-1.1,1.4-2.1,3.1-2.1h34.9V473.9z M846.3,413.9h-38v-35.6
	c0-1.1,1.4-2.1,3.1-2.1h34.9V413.9z M921.4,533.9h-38v-35.6c0-1.1,1.4-2.1,3.1-2.1h34.9V533.9z M921.4,473.9h-38v-35.6
	c0-1.1,1.4-2.1,3.1-2.1h34.9V473.9z M921.4,413.9h-38v-35.6c0-1.1,1.4-2.1,3.1-2.1h34.9V413.9z M956.6,339.1
	c-39.9,6.1-79.8,5.6-119.7,6.1s-79.8,0.7-119.7,0.9c-39.9-0.2-79.8-0.3-119.7-0.9s-79.8,0-119.7-6.1v-3.8
	c39.9-6.1,79.8-5.6,119.7-6.1s79.8-0.7,119.7-0.9c39.9,0.2,79.8,0.3,119.7,0.9s79.8,0,119.7,6.1V339.1z"/>
<path class="st4" d="M507.8,378.3v35.6h38v-37.7h-34.9C509.1,376.2,507.8,377.1,507.8,378.3z"/>
<path class="st4" d="M582.9,378.3v35.6h38v-37.7H586C584.3,376.2,582.9,377.1,582.9,378.3z"/>
<path class="st4" d="M658,378.3v35.6h38v-37.7h-34.9C659.4,376.2,658,377.1,658,378.3z"/>
<path class="st4" d="M733.1,378.3v35.6h38v-37.7h-34.9C734.5,376.2,733.1,377.1,733.1,378.3z"/>
<path class="st4" d="M808.3,378.3v35.6h38v-37.7h-34.9C809.7,376.2,808.3,377.1,808.3,378.3z"/>
<path class="st4" d="M883.4,378.3v35.6h38v-37.7h-34.9C884.8,376.2,883.4,377.1,883.4,378.3z"/>
<path class="st4" d="M507.8,438.3v35.6h38v-37.7h-34.9C509.1,436.2,507.8,437.1,507.8,438.3z"/>
<path class="st4" d="M582.9,438.3v35.6h38v-37.7H586C584.3,436.2,582.9,437.1,582.9,438.3z"/>
<path class="st4" d="M658,438.3v35.6h38v-37.7h-34.9C659.4,436.2,658,437.1,658,438.3z"/>
<path class="st4" d="M733.1,438.3v35.6h38v-37.7h-34.9C734.5,436.2,733.1,437.1,733.1,438.3z"/>
<path class="st4" d="M808.3,438.3v35.6h38v-37.7h-34.9C809.7,436.2,808.3,437.1,808.3,438.3z"/>
<path class="st4" d="M883.4,438.3v35.6h38v-37.7h-34.9C884.8,436.2,883.4,437.1,883.4,438.3z"/>
<path class="st4" d="M507.8,498.3v35.6h38v-37.7h-34.9C509.1,496.2,507.8,497.1,507.8,498.3z"/>
<path class="st4" d="M582.9,498.3v35.6h38v-37.7H586C584.3,496.2,582.9,497.1,582.9,498.3z"/>
<path class="st4" d="M658,498.3v35.6h38v-37.7h-34.9C659.4,496.2,658,497.1,658,498.3z"/>
<path class="st4" d="M733.1,498.3v35.6h38v-37.7h-34.9C734.5,496.2,733.1,497.1,733.1,498.3z"/>
<path class="st4" d="M808.3,498.3v35.6h38v-37.7h-34.9C809.7,496.2,808.3,497.1,808.3,498.3z"/>
<path class="st4" d="M883.4,498.3v35.6h38v-37.7h-34.9C884.8,496.2,883.4,497.1,883.4,498.3z"/>
<polygon class="st4" points="331.1,579.4 331.1,636.9 345.6,579.4 "/>
<path class="st4" d="M1097.3,766.5v-4.7c-126.7-0.7-253.4-0.8-380.1-1.3l-357.9,0.9c-9.4,0.1-18.9,0.2-28.3,0.2v4.8L1097.3,766.5z"
	/>
<path class="st4" d="M1084.2,579.4H345.6l-14.6,57.5v0.1v124.7c9.4-0.1,18.9-0.2,28.3-0.2l357.9-0.9c126.7,0.5,253.4,0.6,380.1,1.3
	V579.4H1084.2z M849.9,665.1c-0.2,8-0.5,16.1-0.8,24.1c-0.3,8-0.7,16-1.1,24c-0.1,1-1,1.8-2,1.7c-0.9-0.1-1.7-0.8-1.7-1.7
	c-0.4-8-0.8-16-1.1-24c-0.3-6.8-0.5-13.5-0.7-20.3c-20.8,0.5-41.6,0.9-62.3,0.9l-66,0.5l-66-0.5c-20.9-0.1-41.8-0.6-62.7-1.3
	c-0.3,6.9-0.6,13.7-1.1,20.6c-0.4,5.8-0.8,11.7-1.3,17.5c-0.1,0.5-0.5,0.9-1,0.8c-0.4,0-0.8-0.4-0.8-0.8c0,0,0,0,0,0l0-0.1
	c0,0,0,0,0,0c-0.5-5.8-0.9-11.7-1.3-17.5c-0.5-8-0.9-16-1.2-24.1c-0.1-1.8,1.3-3.3,3.1-3.4c0,0,0,0,0,0h0.3c22-0.8,44-1.4,66-1.4
	l66-0.5l66,0.5c22,0.1,44,0.5,66,1h0.2C848.3,661.4,849.9,663,849.9,665.1C849.9,665.1,849.9,665.1,849.9,665.1z"/>
<path class="st4" d="M629.3,305h317.7c2.5,0,5-0.9,6.9-2.6c1.8-1.5,2.7-3.8,2.6-6.1l-4.8-117.2c-0.2-3.4-3.3-6-7.2-6H627.1
	l2.3,119.2L629.3,305z"/>
<path class="st4" d="M577.5,302.4c1.8-1.5,2.7-3.8,2.6-6.1l2.7-117.2c-0.2-3.4-3.3-6-7.2-6h-92.5L478,292.3l-0.1,12.7h92.8
	C573.2,305,575.6,304.1,577.5,302.4z"/>
<path class="st5" d="M717.2,328.4c-39.9,0.2-79.8,0.3-119.7,0.9s-79.8,0-119.7,6.1v3.8c39.9,6.1,79.8,5.5,119.7,6.1
	s79.8,0.7,119.7,0.9c39.9-0.2,79.8-0.3,119.7-0.9s79.8,0,119.7-6.1v-3.8c-39.9-6.1-79.8-5.5-119.7-6.1S757.1,328.6,717.2,328.4z"/>
<path class="st1" d="M581.2,706.8C581.2,706.8,581.2,706.7,581.2,706.8C581.2,706.7,581.2,706.7,581.2,706.8L581.2,706.8z"/>
<path class="st1" d="M581.2,706.7c0.1,0.4,0.4,0.8,0.8,0.8c0.5,0.1,1-0.3,1-0.8c0.5-5.8,0.9-11.7,1.3-17.5h-4.4
	C580.3,695,580.7,700.9,581.2,706.7z"/>
<path class="st1" d="M844.2,713.2c0.1,0.9,0.8,1.7,1.7,1.7c1,0.1,1.9-0.7,2-1.7c0.4-8,0.8-16,1.1-24h-6
	C843.4,697.2,843.8,705.2,844.2,713.2z"/>
<path class="st1" d="M849.9,665.1c0-2-1.6-3.7-3.6-3.7h-0.2c-22-0.5-44-0.9-66-1l-66-0.5l-66,0.5c-22,0.1-44,0.6-66,1.4h-0.3
	c0,0,0,0,0,0c-1.8,0.1-3.2,1.6-3.1,3.4c0.3,8,0.7,16,1.2,24.1h4.4c0.4-6.9,0.8-13.7,1.1-20.6c-1.1,0-2.2-0.1-3.3-0.1l3.4-3.4
	c0,1.2-0.1,2.3-0.2,3.5c20.9,0.7,41.8,1.2,62.7,1.3l66,0.5l66-0.5c20.8-0.1,41.6-0.5,62.3-0.9c0-1.3-0.1-2.6-0.1-3.8l3.8,3.8
	c-1.2,0-2.4,0.1-3.7,0.1c0.2,6.8,0.4,13.5,0.7,20.3h6C849.4,681.1,849.7,673.1,849.9,665.1C849.9,665.1,849.9,665.1,849.9,665.1z"/>
<path class="st1" d="M842.3,665.1c0,1.3,0.1,2.6,0.1,3.8c1.2,0,2.4-0.1,3.7-0.1L842.3,665.1z"/>
<path class="st1" d="M582.1,668.5c1.1,0,2.2,0.1,3.3,0.1c0.1-1.2,0.1-2.3,0.2-3.5L582.1,668.5z"/>
<g>
	<path class="st1" d="M1058.5,57.8l-2.8-2.4c-8.4,0.5-11.8,5.2-16,9.3s-8.2,8.3-12,12.7s-7.3,9-10.7,13.8s-7.6,8.8-6.7,17.2l1.4,1.2
		l1.4,1.2c8.4-0.5,11.8-5.2,16-9.3s8.2-8.3,12-12.7s7.3-9,10.7-13.8S1059.3,66.1,1058.5,57.8z"/>
	<path class="st1" d="M1079.8,139c-4.4-5.1-7.1-3.8-10-3.6c-5.9,0.4-11.6,2-16.8,4.7c-2.7,1.3-5.6,1.6-6.8,8.2l0.5,1.8l0.5,1.8
		c4.4,5.1,7.1,3.8,10,3.6c5.9-0.4,11.6-2,16.8-4.7c2.7-1.3,5.6-1.6,6.8-8.2L1079.8,139z"/>
</g>
<g>
	<path class="st1" d="M367.5,144.7c-4.9-1.3-9.8-2.5-14.8-3.4s-10-1.5-15-1.9s-9.9-1.7-15.8,2.5l-0.6,3.2c4.1,6,9.1,6.5,14,7.8
		s9.8,2.5,14.8,3.4s10,1.5,15,1.9s9.9,1.8,15.8-2.5l0.3-1.6l0.3-1.6C377.5,146.6,372.4,146.1,367.5,144.7z"/>
	<path class="st1" d="M403.3,93.8c-6.9-5.1-14.4-9.4-22.3-12.8c-3.9-1.7-7.4-4.2-13.8-1.9l-1.6,2.8c1.1,6.6,5.1,8.4,8.5,10.9
		c6.9,5.1,14.4,9.4,22.3,12.8c3.9,1.7,7.4,4.2,13.8,1.9l0.8-1.4l0.8-1.4C410.7,98.1,406.8,96.3,403.3,93.8z"/>
	<path class="st1" d="M445,87.4c-0.2-4.5-1.4-8.9-3.5-12.8c-1-2-1.2-4.2-6.8-5l-1.5,0.4l-1.6,0.4c-4.4,3.5-3.4,5.5-3.3,7.8
		c0.2,4.5,1.4,8.9,3.5,12.8c1,2,1.2,4.2,6.8,5l1.5-0.4l1.6-0.4C446.2,91.7,445.2,89.7,445,87.4z"/>
</g>
</svg>
